Coordinates
version=1
nRows=17
nColumns=40
inDegrees=yes

Units are S.I. units (second, meters, Newtons, ...)
Angles are in degrees.

endheader
time	pelvis_tilt	pelvis_list	pelvis_rotation	pelvis_tx	pelvis_ty	pelvis_tz	hip_flexion_r	hip_adduction_r	hip_rotation_r	knee_angle_r	knee_angle_r_beta	ankle_angle_r	subtalar_angle_r	mtp_angle_r	hip_flexion_l	hip_adduction_l	hip_rotation_l	knee_angle_l	knee_angle_l_beta	ankle_angle_l	subtalar_angle_l	mtp_angle_l	lumbar_extension	lumbar_bending	lumbar_rotation	arm_flex_r	arm_add_r	arm_rot_r	elbow_flex_r	pro_sup_r	wrist_flex_r	wrist_dev_r	arm_flex_l	arm_add_l	arm_rot_l	elbow_flex_l	pro_sup_l	wrist_flex_l	wrist_dev_l
      7.85000000	     -3.85437136	     -3.37080271	      1.76303346	      0.92565057	      0.93416694	      0.43877276	     30.81396706	     -6.30902880	     -6.68700897	     69.48951029	     69.48951029	      3.60938218	    -16.55017039	      3.99936224	     13.85051206	     -2.83982328	     -9.04928979	     18.52765329	     18.52765329	     11.09233204	     -9.27484905	     -3.32287696	     -8.70970658	      4.22167303	      1.98967817	      7.65342917	    -11.06220714	     -3.02628498	     38.46007952	     44.46271959	      0.00000000	      0.00000000	     13.36535077	    -11.09282956	      1.48354042	     44.07915539	     44.53862058	      0.00000000	      0.00000000
      7.86250000	     -3.71458992	     -3.38620555	      1.47206980	      0.92541336	      0.93498843	      0.43825094	     31.60708846	     -6.19515588	     -6.43358571	     67.80624849	     67.80624849	      3.16365157	    -16.38968221	      2.44964104	     12.71125902	     -2.78387559	     -9.23561455	     17.75211793	     17.75211793	     11.15341403	     -9.27930332	     -3.67054234	     -8.96642248	      4.35770373	      1.97183776	      6.25142600	    -11.21116675	     -3.76957695	     35.27832095	     44.73294957	      0.00000000	      0.00000000	     13.75853564	    -11.44524070	      1.02459216	     46.76856451	     44.74983144	      0.00000000	      0.00000000
      7.87500000	     -3.55610269	     -3.42229398	      1.20172952	      0.92514391	      0.93575691	      0.43771087	     32.29819692	     -6.02306499	     -6.18261069	     66.00886299	     66.00886299	      3.12244071	    -15.99837142	      2.42806918	     11.58051356	     -2.75355019	     -9.47228024	     17.02675508	     17.02675508	     11.40537722	     -9.06869056	     -3.62193132	     -9.23275482	      4.54448438	      2.44551108	      4.14204773	    -11.71439575	     -3.88692360	     33.51426307	     44.81614716	      0.00000000	      0.00000000	     14.89424980	    -11.42984695	      0.72381035	     48.21977025	     44.82546711	      0.00000000	      0.00000000
      7.88750000	     -3.45813715	     -3.44941210	      0.94939111	      0.92477940	      0.93627664	      0.43727098	     32.89105240	     -5.87894199	     -6.03516852	     63.91730747	     63.91730747	      2.78290662	    -15.72667345	      1.49027360	     10.57871146	     -2.70977998	     -9.64771147	     16.36634332	     16.36634332	     11.50103143	     -9.02609520	     -3.89577150	     -9.47846291	      4.65854612	      1.98956013	      3.68391320	    -11.54622849	     -5.50371454	     28.87995887	     45.21695854	      0.00000000	      0.00000000	     14.82104036	    -12.06633075	      0.10267770	     51.66360202	     45.04938583	      0.00000000	      0.00000000
      7.90000000	     -3.35008564	     -3.46257671	      0.71469363	      0.92432946	      0.93669486	      0.43685935	     33.36794076	     -5.72662330	     -5.92279007	     61.62143805	     61.62143805	      2.69721734	    -15.30541318	      1.62686766	      9.61740173	     -2.65779701	     -9.87089220	     15.78184039	     15.78184039	     11.73623453	     -8.85037644	     -3.85241195	     -9.75578565	      4.78682485	      2.43971672	      1.73586484	    -11.97385181	     -5.90613184	     27.22195337	     45.32899956	      0.00000000	      0.00000000	     15.86296097	    -12.02959409	     -0.31915596	     53.24202889	     45.14621635	      0.00000000	      0.00000000
      7.91250000	     -3.28775472	     -3.55963833	      0.51779357	      0.92387106	      0.93685831	      0.43655821	     33.74994069	     -5.48681942	     -5.92531793	     59.05875295	     59.05875295	      2.63831963	    -14.78559887	      1.76184830	      8.78858371	     -2.70624469	     -9.99094326	     15.33863348	     15.33863348	     12.01848810	     -8.71764052	     -3.86245350	     -9.94164067	      5.02959525	      2.58351124	      0.01334379	    -12.36356282	     -6.29796413	     25.74634069	     45.43034286	      0.00000000	      0.00000000	     16.69663087	    -12.18962564	     -0.68901192	     54.89537420	     45.22646802	      0.00000000	      0.00000000
      7.92500000	     -3.28627845	     -3.52959351	      0.33143236	      0.92329501	      0.93676914	      0.43631671	     34.07482029	     -5.37051072	     -5.94779571	     56.20242141	     56.20242141	      2.43982763	    -14.25111869	      1.63125793	      8.07327127	     -2.63224272	    -10.19139003	     14.95567725	     14.95567725	     12.27944268	     -8.52911305	     -3.91049315	    -10.10957029	      5.08575253	      2.64015112	     -1.37320342	    -12.58027207	     -7.18081520	     23.89234009	     45.61574563	      0.00000000	      0.00000000	     17.08221879	    -12.40645115	     -1.20232889	     57.64394929	     45.34899528	      0.00000000	      0.00000000
      7.93750000	     -3.38264818	     -3.65977399	      0.21255784	      0.92266179	      0.93644757	      0.43617375	     34.29936979	     -5.12967489	     -6.24598990	     52.97522939	     52.97522939	      2.35903903	    -13.49778475	      1.83624019	      7.56883491	     -2.74092626	    -10.21947415	     14.73289543	     14.73289543	     12.59399847	     -8.47642110	     -3.97437373	    -10.08982949	      5.37952403	      2.43793157	     -2.86259078	    -12.92910387	     -7.48985422	     23.01300964	     45.68196555	      0.00000000	      0.00000000	     17.72949703	    -12.73985708	     -1.53196133	     58.90121138	     45.40906297	      0.00000000	      0.00000000
      7.95000000	     -3.42189295	     -3.61589006	      0.03419688	      0.92207566	      0.93603904	      0.43623549	     34.28684620	     -4.98887525	     -6.49968669	     49.35822881	     49.35822881	      1.69914162	    -12.88299466	      0.40975645	      7.00018848	     -2.70039137	    -10.51261580	     14.54715500	     14.54715500	     12.96602037	     -8.16727296	     -3.99221840	    -10.30073330	      5.36575522	      1.91891785	     -3.66984279	    -12.99652502	     -9.72846056	     21.46857019	     46.04818694	      0.00000000	      0.00000000	     16.97565166	    -13.37908453	     -2.66088306	     63.77268246	     45.65813690	      0.00000000	      0.00000000
      7.96250000	     -3.52159599	     -3.63443553	     -0.12451877	      0.92149904	      0.93551505	      0.43640387	     34.18667692	     -4.77923646	     -6.92743898	     45.51065988	     45.51065988	      1.54740111	    -11.73166214	      0.52926009	      6.51014885	     -2.71075050	    -10.62170560	     14.37166751	     14.37166751	     13.28375326	     -8.10938190	     -4.04864928	    -10.31784462	      5.47042233	      2.14595501	     -5.22348163	    -13.33929827	    -10.14636206	     20.73922650	     46.12793970	      0.00000000	      0.00000000	     17.74859979	    -13.40467854	     -3.06051363	     65.15419371	     45.73545539	      0.00000000	      0.00000000
      7.97500000	     -3.66585145	     -3.58910433	     -0.29778588	      0.92104870	      0.93479984	      0.43673864	     33.93875218	     -4.60835593	     -7.48570159	     41.37953078	     41.37953078	      1.18460686	    -10.32296209	      0.06218632	      6.03626909	     -2.67092304	    -10.84128903	     14.15846481	     14.15846481	     13.63323230	     -7.85827710	     -4.08851436	    -10.31756444	      5.46138873	      2.31547001	     -6.80369123	    -13.56825837	    -11.03147710	     20.44388134	     46.25173856	      0.00000000	      0.00000000	     18.00198497	    -13.50297145	     -3.60183742	     67.81019547	     45.86151319	      0.00000000	      0.00000000
      7.98750000	     -3.82164917	     -3.56563892	     -0.46003499	      0.92070821	      0.93398448	      0.43723537	     33.49045424	     -4.35866067	     -8.17634828	     36.98438695	     36.98438695	      0.69465911	     -8.68754850	     -0.52423557	      5.60173527	     -2.67061967	    -11.04734848	     14.01836960	     14.01836960	     14.01499573	     -7.63723093	     -4.14565106	    -10.28368885	      5.48518070	      2.18575676	     -8.19583469	    -13.78965434	    -12.10708320	     20.54032666	     46.38427239	      0.00000000	      0.00000000	     17.95686741	    -13.80184352	     -4.19822554	     70.54926582	     46.00897585	      0.00000000	      0.00000000
      8.00000000	     -3.99558946	     -3.60161110	     -0.59462649	      0.92049654	      0.93309817	      0.43798201	     32.88815780	     -3.93146077	     -8.86194313	     32.47796769	     32.47796769	      0.40159849	     -6.99776120	      0.05014413	      5.20258269	     -2.73619985	    -11.10244081	     13.91235205	     13.91235205	     14.33743903	     -7.67011355	     -4.26519500	    -10.13638511	      5.58884832	      2.21292010	     -9.44893355	    -14.05174280	    -12.36722622	     20.23334325	     46.42100898	      0.00000000	      0.00000000	     18.40542099	    -13.97660369	     -4.45918192	     71.74844351	     46.06455066	      0.00000000	      0.00000000
      8.01250000	     -4.08911796	     -3.57416852	     -0.75969382	      0.92054698	      0.93214775	      0.43885024	     32.07526592	     -3.55595890	     -9.70922229	     28.05063588	     28.05063588	      0.15651097	     -4.84238895	      0.69122549	      4.65060722	     -2.73474895	    -11.24528379	     13.73351199	     13.73351199	     14.68011118	     -7.57951023	     -4.41026388	    -10.11597115	      5.59265629	      2.41494160	    -10.76955450	    -14.23313892	    -12.67935510	     20.13069693	     46.45290386	      0.00000000	      0.00000000	     18.71852956	    -14.04976739	     -4.73817870	     73.56723452	     46.13349869	      0.00000000	      0.00000000
      8.02500000	     -4.22408409	     -3.49144884	     -0.90356126	      0.92085092	      0.93095602	      0.43991711	     31.26462995	     -3.16505894	    -10.46143241	     23.91436918	     23.91436918	     -0.03795069	     -2.75655679	      1.56484964	      4.12950493	     -2.68296287	    -11.37136387	     13.56123921	     13.56123921	     15.02134782	     -7.50491074	     -4.57348895	     -9.93740366	      5.52799975	      2.54481785	    -11.93251653	    -14.32816625	    -12.93608607	     20.13545450	     46.47244556	      0.00000000	      0.00000000	     18.93747298	    -14.17641570	     -4.97878752	     75.25183562	     46.19379329	      0.00000000	      0.00000000
      8.03750000	     -4.15192771	     -3.34096583	     -1.03536041	      0.92150104	      0.92980771	      0.44097746	     30.37172259	     -3.00343029	    -11.76897056	     20.56255001	     20.56255001	      0.27726463	      0.19321439	      3.38912413	      3.29718153	     -2.55868865	    -11.67129779	     13.28255715	     13.28255715	     15.45970469	     -7.13189147	     -4.81763517	    -10.07678361	      5.33494670	      2.35566766	    -13.22107218	    -14.43705995	    -13.76486262	     21.35484683	     46.50584749	      0.00000000	      0.00000000	     18.26286970	    -14.53030829	     -5.56144927	     79.01731993	     46.35319252	      0.00000000	      0.00000000
      8.05000000	     -4.16765257	     -3.30083131	     -1.13487211	      0.92227954	      0.92852270	      0.44233510	     29.57534578	     -2.59745670	    -12.64922039	     17.68105065	     17.68105065	      0.66593665	      2.09000892	      5.76865170	      2.61782117	     -2.56241170	    -11.74581831	     13.11575776	     13.11575776	     15.87353087	     -7.08269934	     -4.94320976	     -9.99941988	      5.30035209	      2.28864001	    -14.15000332	    -14.50545009	    -14.26523126	     21.83793112	     46.54255979	      0.00000000	      0.00000000	     18.07814810	    -14.67176038	     -6.05221161	     81.00721813	     46.48658842	      0.00000000	      0.00000000
